<?xml version="1.0" encoding="UTF-8" standalone="no"?><!-- Generator: Gravit.io --><svg xmlns="http://www.w3.org/2000/svg" xmlns:xlink="http://www.w3.org/1999/xlink" style="isolation:isolate" viewBox="0 0 1129 663" width="1129pt" height="663pt"><defs><clipPath id="_clipPath_GEBZKeGpGTIdWuMkIBAHMw16UcPrrdWa"><rect width="1129" height="663"/></clipPath></defs><g clip-path="url(#_clipPath_GEBZKeGpGTIdWuMkIBAHMw16UcPrrdWa)"><circle vector-effect="non-scaling-stroke" cx="321" cy="321" r="321" fill="rgb(242,242,242)"/><ellipse vector-effect="non-scaling-stroke" cx="559" cy="635.49998" rx="514" ry="27.50001999999995" fill="rgb(63,61,86)"/><g opacity="0.2"><ellipse vector-effect="non-scaling-stroke" cx="558" cy="627" rx="460" ry="22" fill="rgb(0,0,0)"/></g><rect x="131" y="152.5" width="840" height="50" transform="matrix(1,0,0,1,0,0)" fill="rgb(63,61,86)"/><path d=" M 131 608.83 C 131 614.577 133.283 620.089 137.347 624.153 C 141.411 628.217 146.923 630.5 152.67 630.5 L 949.33 630.5 C 955.077 630.5 960.589 628.217 964.653 624.153 C 968.717 620.089 971 614.577 971 608.83 L 971 177.5 L 131 177.5 L 131 608.83 Z " fill="rgb(63,61,86)"/><path d=" M 949.33 117.5 L 152.67 117.5 C 146.923 117.5 141.411 119.783 137.347 123.847 C 133.283 127.911 131 133.423 131 139.17 L 131 177.5 L 971 177.5 L 971 139.17 C 971 133.423 968.717 127.911 964.653 123.847 C 960.589 119.783 955.077 117.5 949.33 117.5 L 949.33 117.5 Z " fill="rgb(63,61,86)"/><g opacity="0.2"><path d=" M 949.33 117.5 L 152.67 117.5 C 146.923 117.5 141.411 119.783 137.347 123.847 C 133.283 127.911 131 133.423 131 139.17 L 131 177.5 L 971 177.5 L 971 139.17 C 971 133.423 968.717 127.911 964.653 123.847 C 960.589 119.783 955.077 117.5 949.33 117.5 L 949.33 117.5 Z " fill="rgb(0,0,0)"/></g><circle vector-effect="non-scaling-stroke" cx="181" cy="147.5" r="13" fill="rgb(63,61,86)"/><circle vector-effect="non-scaling-stroke" cx="217" cy="147.5" r="13" fill="rgb(63,61,86)"/><circle vector-effect="non-scaling-stroke" cx="253" cy="147.5" r="13" fill="rgb(63,61,86)"/><path d="M 173.335 213.5 L 499.665 213.5 C 502.609 213.5 505 215.891 505 218.835 L 505 594.165 C 505 597.109 502.609 599.5 499.665 599.5 L 173.335 599.5 C 170.391 599.5 168 597.109 168 594.165 L 168 218.835 C 168 215.891 170.391 213.5 173.335 213.5 Z" style="stroke:none;fill:#606060;stroke-miterlimit:10;"/><path d="M 608.476 272.5 L 881.524 272.5 C 884.546 272.5 887 274.954 887 277.976 L 887 289.024 C 887 292.046 884.546 294.5 881.524 294.5 L 608.476 294.5 C 605.454 294.5 603 292.046 603 289.024 L 603 277.976 C 603 274.954 605.454 272.5 608.476 272.5 Z" style="stroke:none;fill:#22E6BB;stroke-miterlimit:10;"/><path d="M 542.476 352.5 L 947.524 352.5 C 950.546 352.5 953 354.954 953 357.976 L 953 362.024 C 953 365.046 950.546 367.5 947.524 367.5 L 542.476 367.5 C 539.454 367.5 537 365.046 537 362.024 L 537 357.976 C 537 354.954 539.454 352.5 542.476 352.5 Z" style="stroke:none;fill:#22E6BB;stroke-miterlimit:10;"/><path d="M 542.476 396.5 L 947.524 396.5 C 950.546 396.5 953 398.954 953 401.976 L 953 406.024 C 953 409.046 950.546 411.5 947.524 411.5 L 542.476 411.5 C 539.454 411.5 537 409.046 537 406.024 L 537 401.976 C 537 398.954 539.454 396.5 542.476 396.5 Z" style="stroke:none;fill:#22E6BB;stroke-miterlimit:10;"/><path d="M 542.476 440.5 L 947.524 440.5 C 950.546 440.5 953 442.954 953 445.976 L 953 450.024 C 953 453.046 950.546 455.5 947.524 455.5 L 542.476 455.5 C 539.454 455.5 537 453.046 537 450.024 L 537 445.976 C 537 442.954 539.454 440.5 542.476 440.5 Z" style="stroke:none;fill:#22E6BB;stroke-miterlimit:10;"/><path d="M 542.476 484.5 L 947.524 484.5 C 950.546 484.5 953 486.954 953 489.976 L 953 494.024 C 953 497.046 950.546 499.5 947.524 499.5 L 542.476 499.5 C 539.454 499.5 537 497.046 537 494.024 L 537 489.976 C 537 486.954 539.454 484.5 542.476 484.5 Z" style="stroke:none;fill:#22E6BB;stroke-miterlimit:10;"/><path d="M 872.028 552.5 L 945.972 552.5 C 949.851 552.5 953 555.649 953 559.528 L 953 571.472 C 953 575.351 949.851 578.5 945.972 578.5 L 872.028 578.5 C 868.149 578.5 865 575.351 865 571.472 L 865 559.528 C 865 555.649 868.149 552.5 872.028 552.5 Z" style="stroke:none;fill:#22E6BB;stroke-miterlimit:10;"/><path d=" M 1053.103 506.116 C 1055.764 501.472 1057.138 496.202 1057.086 490.85 C 1057.086 477.053 1048.542 465.869 1038.003 465.869 C 1027.464 465.869 1018.921 477.053 1018.921 490.85 C 1018.868 496.202 1020.243 501.472 1022.904 506.116 C 1017.593 515.601 1017.593 527.163 1022.904 536.648 C 1017.593 546.133 1017.593 557.696 1022.904 567.18 C 1017.593 576.665 1017.593 588.228 1022.904 597.712 C 1020.243 602.357 1018.868 607.626 1018.921 612.978 C 1018.921 626.775 1027.464 637.959 1038.003 637.959 C 1048.542 637.959 1057.086 626.775 1057.086 612.978 C 1057.138 607.626 1055.764 602.357 1053.103 597.712 C 1058.413 588.228 1058.413 576.665 1053.103 567.18 C 1058.413 557.696 1058.413 546.133 1053.103 536.648 C 1058.413 527.163 1058.413 515.601 1053.103 506.116 Z " fill="rgb(63,61,86)"/><ellipse vector-effect="non-scaling-stroke" cx="1038.00321" cy="460.31783" rx="19.082560000000058" ry="24.980799999999988" fill="rgb(63,61,86)"/><ellipse vector-effect="non-scaling-stroke" cx="1038.00321" cy="429.78574" rx="19.082560000000058" ry="24.980799999999988" fill="rgb(63,61,86)"/><path d=" M 1109.439 220.845 C 1112.046 217.526 1114.42 214.03 1116.545 210.384 L 1066.404 202.149 L 1120.633 202.552 C 1131.147 179.677 1131.778 153.482 1122.379 130.126 L 1049.624 167.868 L 1116.721 118.547 C 1099.587 88.939 1067.356 71.375 1033.188 73.027 C 999.02 74.678 968.634 95.268 954.435 126.39 C 940.236 157.512 944.602 193.957 965.75 220.845 C 961.686 226.011 958.191 231.599 955.325 237.514 L 1020.412 271.329 L 951.011 248.037 C 941.112 277.302 946.655 309.587 965.75 333.874 C 936.276 371.346 940.552 425.178 975.572 457.528 C 1010.593 489.877 1064.595 489.877 1099.616 457.528 C 1134.637 425.178 1138.913 371.346 1109.439 333.874 C 1135.52 300.711 1135.52 254.007 1109.439 220.845 L 1109.439 220.845 Z " fill-rule="evenodd" fill="rgb(62,204,95)"/><g opacity="0.1"><path d=" M 946.189 277.359 C 946.157 297.863 953.05 317.777 965.75 333.874 C 936.276 371.346 940.552 425.178 975.572 457.528 C 1010.593 489.877 1064.595 489.877 1099.616 457.528 C 1134.637 425.178 1138.913 371.346 1109.439 333.874 C 1121.69 318.321 946.189 267.1 946.189 277.359 Z " fill="rgb(0,0,0)"/></g><g><path d="M 231.647 263.5 L 437.853 263.5 C 461.391 263.5 480.5 282.609 480.5 306.147 L 480.5 512.353 C 480.5 535.891 461.391 555 437.853 555 L 231.647 555 C 208.109 555 189 535.891 189 512.353 L 189 306.147 C 189 282.609 208.109 263.5 231.647 263.5 Z" style="stroke:none;fill:#22E6BB;stroke-miterlimit:10;"/><path d="M 243.513 283.03 L 425.987 283.03 C 445.295 283.03 460.97 298.706 460.97 318.013 L 460.97 474.547 C 460.97 493.854 445.295 509.53 425.987 509.53 L 243.513 509.53 C 224.205 509.53 208.53 493.854 208.53 474.547 L 208.53 318.013 C 208.53 298.706 224.205 283.03 243.513 283.03 Z" style="stroke:none;fill:#E5FDFF;stroke-miterlimit:10;"/><circle vector-effect="non-scaling-stroke" cx="336.50000000000057" cy="534.0138339920948" r="15.741106719367565" fill="rgb(235,235,235)"/><g><path d=" M 468.624 367.11 L 484 367.11 L 484 350.368 L 336.5 350.368 L 189 350.368 L 189 367.11 L 206.085 367.11 L 206.085 383.852 L 321.124 383.852 L 321.124 367.11 L 321.124 367.11 L 321.124 367.11 L 336.5 367.11 L 336.5 367.11 L 336.5 367.11 L 353.585 367.11 L 353.585 383.852 L 468.624 383.852 L 468.624 367.11 L 468.624 367.11 L 468.624 367.11 Z  M 221.461 383.852 L 303.469 383.852 L 303.469 400.594 L 221.461 400.594 L 221.461 383.852 L 221.461 383.852 L 221.461 383.852 L 221.461 383.852 L 221.461 383.852 L 221.461 383.852 Z  M 237.977 400.594 L 287.523 400.594 L 287.523 417.336 L 237.977 417.336 L 237.977 400.594 L 237.977 400.594 L 237.977 400.594 L 237.977 400.594 L 237.977 400.594 Z  M 368.961 383.852 L 450.969 383.852 L 450.969 400.594 L 368.961 400.594 L 368.961 383.852 L 368.961 383.852 Z  M 385.477 400.594 L 435.023 400.594 L 435.023 417.336 L 385.477 417.336 L 385.477 400.594 Z " fill-rule="evenodd" fill="rgb(0,0,0)"/><g><rect x="220.48" y="367.11" width="16.475" height="16.742" transform="matrix(1,0,0,1,0,0)" fill="rgb(255,255,255)"/><rect x="236.955" y="383.852" width="16.475" height="16.742" transform="matrix(1,0,0,1,0,0)" fill="rgb(255,255,255)"/></g><g><rect x="368.961" y="363.524" width="16.475" height="16.742" transform="matrix(1,0,0,1,0,0)" fill="rgb(255,255,255)"/><rect x="385.437" y="380.266" width="16.475" height="16.742" transform="matrix(1,0,0,1,0,0)" fill="rgb(255,255,255)"/></g></g><path d=" M 334.595 470.871 Q 312.18 471.208 275.285 447.729 C 280.374 463.343 296.123 473.545 314.631 477.938 C 333.14 482.332 354.407 480.917 370.533 473.294 C 381.917 467.913 390.739 459.438 394.217 447.729 Q 366.749 470.388 334.595 470.871 Z " fill="rgb(130,130,130)"/></g></g></svg>