<?xml version="1.0" encoding="iso-8859-1"?>
<!-- Generator: Adobe Illustrator 19.0.0, SVG Export Plug-In . SVG Version: 6.00 Build 0)  -->
<svg version="1.1" id="Layer_1" xmlns="http://www.w3.org/2000/svg" xmlns:xlink="http://www.w3.org/1999/xlink" x="0px" y="0px"
	 viewBox="0 0 392.533 392.533" style="enable-background:new 0 0 392.533 392.533;" xml:space="preserve">
<path style="fill:#FFFFFF;" d="M299.055,370.036c6.012,0,10.925-4.848,10.925-10.925V32.065c0-6.012-4.848-10.925-10.925-10.925
	H93.479c-6.012,0-10.925,4.848-10.925,10.925v327.111c0,6.012,4.848,10.925,10.925,10.925h205.576V370.036z"/>
<path style="fill:#56ACE0;" d="M105.568,85.204v82.166h55.725c6.012,0,10.925,4.848,10.925,10.925
	c0,6.012-4.848,10.925-10.925,10.925h-55.725v21.786h23.014c6.012,0,10.925,4.848,10.925,10.925c0,6.012-4.848,10.925-10.925,10.925
	h-23.014v73.244H287.03V85.204H105.568z"/>
<g>
	<path style="fill:#194F82;" d="M183.984,348.962h24.566c6.012,0,10.925-4.848,10.925-10.925s-4.848-10.925-10.925-10.925h-24.566
		c-6.012,0-10.925,4.848-10.925,10.925S177.972,348.962,183.984,348.962z"/>
	<path style="fill:#194F82;" d="M229.042,43.572h-65.552c-6.012,0-10.925,4.848-10.925,10.925s4.848,10.925,10.925,10.925h65.552
		c6.012,0,10.925-4.848,10.925-10.925S235.055,43.572,229.042,43.572z"/>
	<path style="fill:#194F82;" d="M299.055,0H93.479C75.442,0,60.768,14.675,60.768,32.711v327.111
		c0,18.036,14.675,32.711,32.711,32.711h205.576c18.036,0,32.711-14.675,32.711-32.711V32.711C331.701,14.675,317.026,0,299.055,0z
		 M309.915,359.822c0,6.012-4.848,10.925-10.925,10.925H93.479c-6.012,0-10.925-4.848-10.925-10.925V32.711
		c0-6.012,4.848-10.925,10.925-10.925h205.576c6.012,0,10.925,4.848,10.925,10.925v327.111H309.915z"/>
</g>
<g>
</g>
<g>
</g>
<g>
</g>
<g>
</g>
<g>
</g>
<g>
</g>
<g>
</g>
<g>
</g>
<g>
</g>
<g>
</g>
<g>
</g>
<g>
</g>
<g>
</g>
<g>
</g>
<g>
</g>
</svg>
