<?xml version="1.0" encoding="iso-8859-1"?>
<!-- Generator: Adobe Illustrator 19.0.0, SVG Export Plug-In . SVG Version: 6.00 Build 0)  -->
<svg version="1.1" id="Layer_1" xmlns="http://www.w3.org/2000/svg" xmlns:xlink="http://www.w3.org/1999/xlink" x="0px" y="0px"
	 viewBox="0 0 512.001 512.001" style="enable-background:new 0 0 512.001 512.001;" xml:space="preserve">
<rect x="111.884" y="102.229" style="fill:#7BFFCD;" width="288.238" height="307.548"/>
<g>
	<path style="fill:#767B95;" d="M111.882,460.583c0,20.725,16.801,37.527,37.527,37.527h213.183
		c20.725,0,37.527-16.801,37.527-37.527v-50.807H111.882V460.583z"/>
	<path style="fill:#767B95;" d="M362.592,13.892H149.409c-20.725,0-37.527,16.801-37.527,37.527v50.807h288.236V51.419
		C400.118,30.694,383.317,13.892,362.592,13.892z"/>
</g>
<circle style="fill:#FFDC64;" cx="255.996" cy="453.16" r="31.951"/>
<path d="M362.592,0H149.409C121.056,0,97.99,23.066,97.99,51.419v50.807v307.551v50.806c0,28.352,23.066,51.419,51.419,51.419
	h213.183c28.353,0,51.419-23.066,51.419-51.419v-50.806V102.226V51.419C414.009,23.066,390.944,0,362.592,0z M256,471.227
	c-9.958,0-18.059-8.102-18.059-18.059s8.102-18.059,18.059-18.059s18.059,8.102,18.059,18.059S265.959,471.227,256,471.227z
	 M125.774,395.884V116.118h260.452v279.767H125.774V395.884z M125.774,51.419c0-13.033,10.602-23.635,23.635-23.635h213.183
	c13.032,0,23.635,10.602,23.635,23.635v36.916H125.774V51.419z M125.774,460.583v-36.914h95.173
	c-6.726,7.979-10.79,18.27-10.79,29.499c0,11.969,4.616,22.877,12.155,31.051h-72.904
	C136.376,484.217,125.774,473.616,125.774,460.583z M386.226,460.583c0,13.033-10.602,23.635-23.635,23.635h-72.904
	c7.539-8.174,12.155-19.08,12.155-31.051c0-11.229-4.065-21.52-10.79-29.499h95.173V460.583z"/>
<path d="M265.72,72.892h-61.114c-7.672,0-13.892-6.221-13.892-13.892s6.219-13.892,13.892-13.892h61.114
	c7.672,0,13.892,6.221,13.892,13.892S273.392,72.892,265.72,72.892z"/>
<path d="M307.399,72.895c-0.903,0-1.82-0.097-2.723-0.278c-0.889-0.181-1.75-0.445-2.598-0.792
	c-0.834-0.347-1.639-0.778-2.389-1.278c-0.764-0.499-1.473-1.084-2.125-1.723c-0.639-0.639-1.209-1.347-1.723-2.112
	c-0.5-0.75-0.931-1.556-1.278-2.403c-0.347-0.833-0.611-1.707-0.792-2.596c-0.181-0.89-0.264-1.807-0.264-2.709
	c0-0.903,0.083-1.821,0.264-2.723c0.181-0.875,0.445-1.752,0.792-2.598c0.347-0.835,0.778-1.641,1.278-2.389
	c0.514-0.765,1.084-1.474,1.723-2.113c0.653-0.639,1.361-1.222,2.125-1.736c0.75-0.5,1.556-0.931,2.389-1.278
	c0.847-0.347,1.723-0.611,2.598-0.792c1.792-0.361,3.64-0.361,5.432,0c0.889,0.181,1.764,0.445,2.598,0.792
	c0.833,0.347,1.653,0.778,2.403,1.278c0.764,0.514,1.473,1.097,2.112,1.736c2.584,2.584,4.07,6.154,4.07,9.821
	c0,0.902-0.097,1.82-0.278,2.709c-0.181,0.889-0.445,1.764-0.792,2.596c-0.347,0.847-0.778,1.653-1.278,2.403
	c-0.5,0.764-1.084,1.473-1.723,2.112c-0.639,0.639-1.347,1.224-2.112,1.723c-0.75,0.5-1.57,0.931-2.403,1.278
	c-0.833,0.347-1.709,0.611-2.598,0.792C309.219,72.797,308.302,72.895,307.399,72.895z"/>
<polygon style="fill:#FFDC64;" points="318.082,256.001 193.918,184.315 193.918,327.687 "/>
<path d="M193.918,341.578c-2.399,0-4.797-0.62-6.946-1.861c-4.298-2.481-6.946-7.068-6.946-12.03v-143.37
	c0-4.962,2.648-9.549,6.946-12.03c4.298-2.482,9.594-2.482,13.892,0l124.164,71.685c4.298,2.481,6.946,7.068,6.946,12.03
	c0,4.962-2.648,9.549-6.946,12.03l-124.164,71.687C198.715,340.957,196.317,341.578,193.918,341.578z M207.81,208.377v95.248
	L290.299,256L207.81,208.377z"/>
<g>
</g>
<g>
</g>
<g>
</g>
<g>
</g>
<g>
</g>
<g>
</g>
<g>
</g>
<g>
</g>
<g>
</g>
<g>
</g>
<g>
</g>
<g>
</g>
<g>
</g>
<g>
</g>
<g>
</g>
</svg>
