<?xml version="1.0" encoding="UTF-8" standalone="no"?><!-- Generator: Gravit.io --><svg xmlns="http://www.w3.org/2000/svg" xmlns:xlink="http://www.w3.org/1999/xlink" style="isolation:isolate" viewBox="0 0 1088 687.962" width="1088pt" height="687.962pt"><defs><clipPath id="_clipPath_73tBbMrr4Hm3pXDntr0QUhAmy2kRHIt2"><rect width="1088" height="687.962"/></clipPath></defs><g clip-path="url(#_clipPath_73tBbMrr4Hm3pXDntr0QUhAmy2kRHIt2)"><g><path d=" M 961.81 454.442 C 956.54 499.592 945.59 535.842 930.56 564.752 C 910.56 603.272 876.35 618.792 845.79 635.032 C 836.959 639.716 827.778 643.708 818.33 646.972 C 762.72 666.272 700.48 661.152 651.59 650.962 C 617.299 643.809 582.492 639.408 547.5 637.802 Q 532.53 637.127 517.53 637.132 C 502.11 637.152 224.46 642.422 156.86 505.562 C 140.17 471.802 128.73 430.562 124.62 380.292 C 112.99 238.172 176.91 144.832 259.36 83.822 C 415.33 -31.588 629.12 -26.748 782.79 91.702 C 885.15 170.602 980.99 290.012 961.81 454.442 Z " fill="rgb(63,61,86)"/><path d=" M 930.56 564.752 C 910.56 603.272 883.35 628.792 852.79 645.032 C 843.959 649.716 834.778 653.708 825.33 656.972 C 769.72 676.272 707.48 671.152 658.59 660.962 C 624.299 653.809 589.492 649.408 554.5 647.802 Q 539.53 647.127 524.53 647.132 Q 501.4 647.162 478.28 648.852 C 378.11 656.212 224.46 642.422 156.86 505.562 L 326 177.962 L 388.95 339.581 L 409.04 391.171 L 464.41 315.191 L 493 275.962 L 623.2 425.232 L 660 343.962 L 914.78 551.881 L 928.99 563.471 L 930.56 564.752 Z " fill="rgb(242,242,242)"/><g opacity="0.1"><path d=" M 302 282.962 L 328 225.962 L 364 308.962 L 333 248.962 L 302 282.962 Z " fill="rgb(0,0,0)"/></g><g opacity="0.1"><path d=" M 554.5 647.802 Q 539.53 647.127 524.53 647.132 L 409.04 391.172 L 554.5 647.802 Z " fill="rgb(0,0,0)"/></g><g opacity="0.1"><path d=" M 464.411 315.191 L 493 292.962 L 623 442.962 L 491 314.962 L 464.411 315.191 Z " fill="rgb(0,0,0)"/></g><g opacity="0.1"><path d=" M 852.79 645.032 C 843.959 649.716 834.778 653.708 825.33 656.972 L 623.2 425.232 L 852.79 645.032 Z " fill="rgb(0,0,0)"/></g><circle vector-effect="non-scaling-stroke" cx="482" cy="101.962" r="3" fill="rgb(242,242,242)"/><circle vector-effect="non-scaling-stroke" cx="399" cy="204.962" r="3" fill="rgb(242,242,242)"/><circle vector-effect="non-scaling-stroke" cx="602" cy="222.962" r="2" fill="rgb(242,242,242)"/><circle vector-effect="non-scaling-stroke" cx="182" cy="267.962" r="2" fill="rgb(242,242,242)"/><circle vector-effect="non-scaling-stroke" cx="614" cy="98.962" r="2" fill="rgb(242,242,242)"/><circle vector-effect="non-scaling-stroke" cx="738" cy="194.962" r="2" fill="rgb(242,242,242)"/><circle vector-effect="non-scaling-stroke" cx="860" cy="346.962" r="2" fill="rgb(242,242,242)"/><path d=" M 306 121.222 L 303.24 121.222 L 303.24 118.462 L 301.76 118.462 L 301.76 121.222 L 299 121.222 L 299 122.7 L 301.76 122.7 L 301.76 125.459 L 303.24 125.459 L 303.24 122.7 L 306 122.7 L 306 121.222 Z " fill="rgb(242,242,242)"/><path d=" M 848 424.222 L 845.24 424.222 L 845.24 421.462 L 843.76 421.462 L 843.76 424.222 L 841 424.222 L 841 425.7 L 843.76 425.7 L 843.76 428.459 L 845.24 428.459 L 845.24 425.7 L 848 425.7 L 848 424.222 Z " fill="rgb(242,242,242)"/><path d=" M 1088 613.962 C 1088 630.531 844.443 687.962 544 687.962 C 243.557 687.962 0 630.531 0 613.962 C 0 597.393 243.557 627.962 544 627.962 C 844.443 627.962 1088 597.394 1088 613.962 Z " fill="rgb(63,61,86)"/><g opacity="0.1"><path d=" M 1088 613.962 C 1088 630.531 844.443 687.962 544 687.962 C 243.557 687.962 0 630.531 0 613.962 C 0 597.393 243.557 627.962 544 627.962 C 844.443 627.962 1088 597.394 1088 613.962 Z " fill="rgb(0,0,0)"/></g><ellipse vector-effect="non-scaling-stroke" cx="544" cy="613.962" rx="544" ry="30" fill="rgb(63,61,86)"/><path d=" M 568 571.962 C 568 605.099 553.225 595.962 535 595.962 C 516.775 595.962 502 605.099 502 571.962 C 502 538.825 535 475.962 535 475.962 C 535 475.962 568 538.825 568 571.962 Z " fill="rgb(255,153,0)"/><g opacity="0.1"><path d=" M 550 584.641 C 550 599.703 543.284 595.55 535 595.55 C 526.716 595.55 520 599.703 520 584.641 C 520 569.579 535 541.005 535 541.005 C 535 541.005 550 569.581 550 584.641 Z " fill="rgb(0,0,0)"/></g><path d="M 498 604.96 L 572 604.96 C 576.967 604.96 581 608.993 581 613.96 L 581 613.96 C 581 618.927 576.967 622.96 572 622.96 L 498 622.96 C 493.033 622.96 489 618.927 489 613.96 L 489 613.96 C 489 608.993 493.033 604.96 498 604.96 Z" style="stroke:none;fill:#2F2E41;stroke-miterlimit:10;"/><path d="M 498 586.96 L 572 586.96 C 576.967 586.96 581 590.993 581 595.96 L 581 595.96 C 581 600.927 576.967 604.96 572 604.96 L 498 604.96 C 493.033 604.96 489 600.927 489 595.96 L 489 595.96 C 489 590.993 493.033 586.96 498 586.96 Z" style="stroke:none;fill:#2F2E41;stroke-miterlimit:10;"/><path d=" M 137 490.528 C 137 545.871 171.719 590.654 214.626 590.654" fill="rgb(63,61,86)"/><path d=" M 214.626 590.654 C 214.626 534.689 253.371 489.403 301.252 489.403" fill="rgb(108,99,255)"/><path d=" M 165.125 495.545 C 165.125 548.115 187.265 590.654 214.625 590.654" fill="rgb(74,134,232)"/><path d=" M 214.626 590.654 C 214.626 519.143 259.409 461.277 314.752 461.277" fill="rgb(63,61,86)"/><path d=" M 198.3 591.36 C 198.3 591.36 209.309 591.021 212.626 588.66 C 212.626 588.66 229.56 583.477 230.383 587.265 C 230.383 587.265 246.927 606.109 234.498 606.21 C 234.498 606.21 205.619 604.274 202.308 602.257 C 198.997 600.24 198.3 591.36 198.3 591.36 Z " fill="rgb(168,168,168)"/><g opacity="0.2"><path d=" M 234.716 604.89 C 222.287 604.99 205.837 602.954 202.526 600.937 C 200.004 599.401 198.999 593.889 198.663 591.346 L 198.295 591.36 C 198.295 591.36 198.995 600.239 202.304 602.26 C 202.304 602.26 222.065 606.313 234.494 606.213 C 238.082 606.184 239.321 604.908 239.253 603.013 C 238.755 604.155 237.386 604.868 234.716 604.89 Z " fill="rgb(0,0,0)"/></g><path d=" M 721.429 527.062 C 721.429 565.091 745.286 595.862 774.77 595.862" fill="rgb(63,61,86)"/><path d=" M 774.769 595.863 C 774.769 557.407 801.392 526.288 834.294 526.288" fill="rgb(108,99,255)"/><path d=" M 740.755 530.509 C 740.755 566.633 755.968 595.863 774.769 595.863" fill="rgb(74,134,232)"/><path d=" M 774.769 595.863 C 774.769 546.724 805.542 506.963 843.569 506.963" fill="rgb(63,61,86)"/><path d=" M 763.548 596.348 C 763.548 596.348 771.113 596.115 773.392 594.492 C 773.392 594.492 785.028 590.93 785.592 593.534 C 785.592 593.534 796.96 606.483 788.42 606.552 C 788.42 606.552 768.576 605.222 766.301 603.836 C 764.026 602.45 763.548 596.348 763.548 596.348 Z " fill="rgb(168,168,168)"/><g opacity="0.2"><path d=" M 788.574 605.645 C 780.034 605.714 768.73 604.315 766.455 602.929 C 764.722 601.873 764.032 598.086 763.801 596.339 L 763.548 596.349 C 763.548 596.349 764.027 602.449 766.303 603.836 C 766.303 603.836 779.882 606.621 788.422 606.552 C 790.887 606.532 791.739 605.652 791.692 604.352 C 791.349 605.14 790.409 605.63 788.574 605.645 Z " fill="rgb(0,0,0)"/></g><path d=" M 893.813 618.699 C 893.813 618.699 905.173 616.97 908.313 614.108 C 908.313 614.108 925.203 606.62 926.53 610.441 C 926.53 610.441 946.024 627.888 933.163 629.548 C 933.163 629.548 903.01 631.157 899.328 629.483 C 895.646 627.809 893.813 618.699 893.813 618.699 Z " fill="rgb(168,168,168)"/><g opacity="0.2"><path d=" M 933.228 628.154 C 920.368 629.813 903.075 629.763 899.393 628.089 C 896.593 626.814 894.858 621.231 894.193 618.639 L 893.814 618.7 C 893.814 618.7 895.647 627.809 899.33 629.483 C 899.33 629.483 920.305 631.208 933.165 629.548 C 936.877 629.069 938.001 627.592 937.694 625.642 C 937.319 626.888 935.991 627.798 933.228 628.154 Z " fill="rgb(0,0,0)"/></g><path d=" M 614.26 617.881 C 614.26 617.881 623.847 616.422 626.497 614.006 C 626.497 614.006 640.752 607.686 641.871 610.911 C 641.871 610.911 658.323 625.636 647.471 627.036 C 647.471 627.036 622.023 628.394 618.916 626.981 C 615.809 625.568 614.26 617.881 614.26 617.881 Z " fill="rgb(168,168,168)"/><g opacity="0.2"><path d=" M 647.524 625.856 C 636.671 627.256 622.076 627.214 618.969 625.801 C 616.602 624.725 615.142 620.013 614.579 617.825 L 614.259 617.876 C 614.259 617.876 615.806 625.563 618.914 626.976 C 618.914 626.976 636.614 628.432 647.469 627.031 C 650.602 626.631 651.55 625.38 651.291 623.731 C 650.977 624.788 649.856 625.556 647.524 625.856 Z " fill="rgb(0,0,0)"/></g><path d=" M 122.389 613.09 C 122.389 613.09 129.852 611.954 131.916 610.074 C 131.916 610.074 143.016 605.154 143.885 607.665 C 143.885 607.665 156.693 619.128 148.243 620.218 C 148.243 620.218 128.432 621.275 126.013 620.175 C 123.594 619.075 122.389 613.09 122.389 613.09 Z " fill="rgb(168,168,168)"/><g opacity="0.2"><path d=" M 148.285 619.302 C 139.836 620.392 128.474 620.359 126.055 619.259 C 124.213 618.421 123.076 614.753 122.638 613.05 L 122.389 613.09 C 122.389 613.09 123.589 619.074 126.013 620.175 C 126.013 620.175 139.794 621.308 148.243 620.218 C 150.682 619.903 151.42 618.933 151.219 617.652 C 150.973 618.47 150.1 619.068 148.285 619.302 Z " fill="rgb(0,0,0)"/></g><g opacity="0.1"><path d=" M 383.7 601.318 C 383.7 631.538 341.576 622.191 290 622.191 C 238.424 622.191 196.926 631.538 196.926 601.318 C 196.926 571.098 239.044 564.525 290.62 564.525 C 342.196 564.525 383.7 571.098 383.7 601.318 Z " fill="rgb(0,0,0)"/></g><path d=" M 383.7 593.881 C 383.7 624.101 341.576 614.754 290 614.754 C 238.424 614.754 196.926 624.101 196.926 593.881 C 196.926 563.661 239.04 557.081 290.616 557.081 C 342.192 557.081 383.7 563.657 383.7 593.881 Z " fill="rgb(63,61,86)"/></g><g><path d="M 302.031 423.04 L 444.189 423.04 C 460.416 423.04 473.59 436.214 473.59 452.441 L 473.59 594.599 C 473.59 610.826 460.416 624 444.189 624 L 302.031 624 C 285.804 624 272.63 610.826 272.63 594.599 L 272.63 452.441 C 272.63 436.214 285.804 423.04 302.031 423.04 Z" style="stroke:none;fill:#22E6BB;stroke-miterlimit:10;"/><path d="M 310.207 436.5 L 436.003 436.5 C 449.314 436.5 460.12 447.307 460.12 460.618 L 460.12 568.532 C 460.12 581.843 449.314 592.65 436.003 592.65 L 310.207 592.65 C 296.896 592.65 286.09 581.843 286.09 568.532 L 286.09 460.618 C 286.09 447.307 296.896 436.5 310.207 436.5 Z" style="stroke:none;fill:#E5FDFF;stroke-miterlimit:10;"/><circle vector-effect="non-scaling-stroke" cx="374.31322800000015" cy="609.5307360000003" r="10.851947999999993" fill="rgb(235,235,235)"/><g><path d=" M 465.399 494.467 L 476 494.467 L 476 482.925 L 374.313 482.925 L 272.626 482.925 L 272.626 494.467 L 284.405 494.467 L 284.405 506.009 L 363.713 506.009 L 363.713 494.467 L 363.713 494.467 L 363.713 494.467 L 374.313 494.467 L 374.313 494.467 L 374.313 494.467 L 386.092 494.467 L 386.092 506.009 L 465.399 506.009 L 465.399 494.467 L 465.399 494.467 L 465.399 494.467 Z  M 295.005 506.009 L 351.542 506.009 L 351.542 517.551 L 295.005 517.551 L 295.005 506.009 L 295.005 506.009 L 295.005 506.009 L 295.005 506.009 L 295.005 506.009 L 295.005 506.009 Z  M 306.391 517.551 L 340.549 517.551 L 340.549 529.093 L 306.391 529.093 L 306.391 517.551 L 306.391 517.551 L 306.391 517.551 L 306.391 517.551 L 306.391 517.551 Z  M 396.692 506.009 L 453.228 506.009 L 453.228 517.551 L 396.692 517.551 L 396.692 506.009 L 396.692 506.009 Z  M 408.078 517.551 L 442.235 517.551 L 442.235 529.093 L 408.078 529.093 L 408.078 517.551 Z " fill-rule="evenodd" fill="rgb(0,0,0)"/><g><rect x="294.329" y="494.467" width="11.358" height="11.542" transform="matrix(1,0,0,1,0,0)" fill="rgb(255,255,255)"/><rect x="305.687" y="506.009" width="11.358" height="11.542" transform="matrix(1,0,0,1,0,0)" fill="rgb(255,255,255)"/></g><g><rect x="396.692" y="491.995" width="11.358" height="11.542" transform="matrix(1,0,0,1,0,0)" fill="rgb(255,255,255)"/><rect x="408.05" y="503.537" width="11.358" height="11.542" transform="matrix(1,0,0,1,0,0)" fill="rgb(255,255,255)"/></g></g><path d=" M 373 566 Q 357.547 566.232 332.111 550.046 C 335.62 560.81 346.477 567.843 359.237 570.872 C 371.997 573.901 386.659 572.925 397.776 567.671 C 405.624 563.961 411.706 558.118 414.104 550.046 Q 395.167 565.667 373 566 Z " fill="rgb(130,130,130)"/></g></g></svg>